<?xml version="1.0" standalone="no"?>
<!DOCTYPE svg PUBLIC "-//W3C//DTD SVG 20010904//EN"
 "http://www.w3.org/TR/2001/REC-SVG-20010904/DTD/svg10.dtd">
<svg version="1.0" xmlns="http://www.w3.org/2000/svg"
 width="140.000000pt" height="140.000000pt" viewBox="0 0 140.000000 140.000000"
 preserveAspectRatio="xMidYMid meet">
<metadata>
Created by potrace 1.13, written by Peter Selinger 2001-2015
</metadata>
<g transform="translate(0.000000,140.000000) scale(0.100000,-0.100000)"
fill="#000000" stroke="none">
<path d="M52 1350 l-2 -50 36 0 c21 0 33 4 29 10 -3 6 -1 10 4 10 6 0 11 -4
11 -10 0 -5 51 -9 120 -9 l120 -1 0 50 0 49 -158 0 -158 1 -2 -50z"/>
<path d="M407 1393 c-3 -5 -7 -26 -9 -48 -3 -40 -3 -40 37 -45 38 -5 39 -6 18
-18 -13 -7 -61 -12 -123 -12 -109 0 -104 3 -115 -62 l-6 -38 81 0 c64 0 80 -3
80 -15 0 -17 8 -16 -178 -17 l-142 -1 0 -52 0 -52 57 3 c32 2 102 3 155 4 l97
0 4 48 c3 39 4 36 5 -20 l2 -68 -52 -2 c-29 0 -62 -1 -73 -2 -28 0 -35 -17
-28 -61 l6 -37 78 5 c48 3 82 0 88 -6 8 -8 11 0 11 29 1 55 25 142 33 120 4
-9 0 -32 -7 -51 -17 -39 -11 -76 10 -68 16 6 19 -8 5 -23 -14 -15 -22 -62 -11
-69 5 -3 10 -15 10 -25 0 -30 28 -13 32 18 2 19 9 27 22 27 26 0 31 -19 10
-39 -14 -14 -15 -22 -5 -42 8 -19 8 -30 -1 -47 -12 -22 -12 -22 -22 6 -5 15
-15 27 -22 27 -8 0 -6 -23 7 -81 16 -68 25 -87 57 -117 42 -42 51 -62 22 -55
-11 3 -20 10 -20 17 0 6 -14 19 -30 28 -17 9 -30 24 -30 32 0 20 -40 32 -51
15 -5 -8 -7 -23 -4 -34 2 -11 5 -29 5 -40 0 -18 6 -20 50 -18 54 2 55 1 39
-29 -8 -14 -8 -27 -1 -42 6 -11 20 -43 32 -70 13 -32 41 -68 80 -103 92 -83
94 -131 4 -92 -129 55 -134 58 -141 89 -10 52 -43 50 -60 -3 -10 -34 -7 -61 7
-52 5 3 15 -4 24 -16 l15 -22 6 26 c6 24 8 24 25 9 11 -8 25 -17 32 -18 7 -1
39 -12 70 -24 51 -19 57 -24 48 -40 -6 -10 -10 -27 -9 -37 0 -10 9 1 19 24 10
23 29 49 43 57 13 9 29 28 36 42 6 14 15 23 21 19 5 -3 7 4 5 15 -3 13 5 26
21 37 14 9 30 26 34 37 5 12 25 59 44 106 20 46 36 86 36 89 0 3 -17 -23 -37
-57 -75 -122 -159 -188 -190 -147 -16 24 -17 52 0 58 10 3 10 9 0 26 -18 30
-16 39 13 66 l27 25 -25 0 c-59 0 -86 57 -65 133 6 23 4 29 -18 37 -14 5 -25
14 -25 20 0 6 3 9 8 7 4 -2 21 2 37 8 l30 13 -27 7 c-31 8 -35 17 -13 35 12
10 12 15 -1 35 -12 18 -13 28 -5 44 29 53 -4 143 -59 163 -34 11 -37 20 -15
42 8 8 15 23 15 34 0 11 11 27 24 38 14 10 27 27 30 39 7 27 89 50 146 40 49
-8 90 -39 90 -69 0 -13 13 -43 30 -67 19 -29 30 -57 30 -81 0 -43 10 -53 35
-34 15 10 18 25 16 60 -3 62 5 87 26 79 10 -4 14 -2 9 5 -3 6 1 15 11 20 14 8
15 13 4 25 -7 9 -22 17 -34 19 -15 2 -23 11 -24 28 -7 66 -15 91 -28 80 -9 -8
-16 -3 -25 20 -8 19 -18 29 -26 26 -28 -11 -13 10 19 25 24 12 31 22 29 38 -3
19 1 22 20 19 23 -3 27 -17 13 -50 -8 -21 20 -26 29 -5 5 10 7 10 12 0 3 -7
19 -13 35 -13 28 0 29 2 29 48 l0 48 -139 1 -139 1 -13 -29 c-15 -37 -43 -35
-47 4 l-3 27 -144 0 c-79 0 -146 -3 -148 -7z"/>
<path d="M0 1224 l0 -59 87 0 c49 0 91 5 95 10 13 17 9 26 -8 23 -10 -2 -19 3
-22 11 -3 10 1 12 17 8 18 -4 21 -1 21 24 l0 29 -72 0 c-40 0 -83 3 -95 6 -22
6 -23 4 -23 -52z"/>
<path d="M2 953 c3 -42 6 -48 27 -51 13 -2 28 2 33 10 7 10 11 10 15 1 3 -8
24 -13 54 -13 41 0 49 3 49 19 0 10 3 31 6 47 l6 29 -97 3 -96 4 3 -49z"/>
<path d="M383 873 c3 -5 -66 -7 -154 -6 l-159 2 0 -50 0 -49 150 0 c129 0 152
-2 157 -16 8 -22 -14 -33 -52 -27 -22 3 -37 0 -49 -12 -9 -9 -25 -15 -35 -12
-16 4 -19 -1 -18 -29 l1 -34 65 0 c37 0 72 4 80 9 9 6 21 5 32 -2 25 -15 28
-9 19 43 -4 25 -8 35 -9 23 -1 -26 -16 -30 -25 -7 -9 23 -8 26 6 18 8 -5 9 -2
5 9 -4 10 -2 17 4 17 7 0 9 13 5 38 -4 20 -7 49 -7 65 0 15 -4 27 -10 27 -6 0
-8 -3 -6 -7z"/>
<path d="M0 685 l0 -56 79 2 c44 1 85 5 92 10 11 7 15 76 5 86 -2 2 -42 6 -90
9 l-86 5 0 -56z"/>
<path d="M63 556 l1 -56 137 0 c76 0 144 3 153 6 11 4 16 19 16 50 l0 44 -139
0 c-77 0 -146 3 -154 6 -13 5 -15 -4 -14 -50z"/>
<path d="M0 414 c0 -47 3 -55 16 -50 9 3 54 6 100 6 l84 0 0 50 0 50 -100 0
-100 0 0 -56z"/>
<path d="M242 423 l3 -48 84 0 c83 0 83 0 112 35 19 22 25 38 19 44 -15 15
-49 17 -72 5 -14 -8 -23 -8 -31 0 -17 17 -49 13 -74 -11 l-23 -21 0 21 c0 12
-5 22 -11 22 -6 0 -9 -19 -7 -47z"/>
<path d="M72 333 c0 -5 -2 -15 -6 -25 -4 -9 -6 -29 -4 -45 3 -28 3 -28 68 -25
51 3 78 11 127 38 34 19 65 39 68 44 7 11 3 12 -77 15 -48 2 -57 -1 -61 -16
-3 -11 -10 -19 -16 -19 -15 0 -14 27 2 33 6 3 -14 6 -45 6 -32 1 -57 -2 -56
-6z"/>
</g>
</svg>
