<?xml version="1.0" standalone="no"?>
<!DOCTYPE svg PUBLIC "-//W3C//DTD SVG 20010904//EN"
 "http://www.w3.org/TR/2001/REC-SVG-20010904/DTD/svg10.dtd">
<svg version="1.0" xmlns="http://www.w3.org/2000/svg"
 width="366.000000pt" height="370.000000pt" viewBox="0 0 366.000000 370.000000"
 preserveAspectRatio="xMidYMid meet">
<metadata>
Created by potrace 1.13, written by Peter Selinger 2001-2015
</metadata>
<g transform="translate(0.000000,370.000000) scale(0.100000,-0.100000)"
fill="#000000" stroke="none">
<path d="M965 3438 c-3 -7 -4 -251 -3 -543 l3 -530 60 0 60 0 0 540 0 540 -58
3 c-40 2 -59 -1 -62 -10z"/>
<path d="M321 3104 c-30 -8 -73 -25 -95 -37 -38 -21 -41 -26 -44 -70 -4 -62
10 -67 87 -27 119 60 229 59 287 -1 24 -26 29 -39 32 -99 l4 -70 -63 0 c-165
-1 -301 -45 -348 -115 -53 -79 -46 -197 16 -265 83 -93 259 -95 377 -5 l35 26
3 -38 3 -38 50 0 50 0 3 270 c4 316 -2 357 -56 414 -64 67 -210 90 -341 55z
m269 -477 c0 -71 -1 -74 -37 -109 -111 -109 -273 -79 -273 49 0 90 67 131 218
132 l92 1 0 -73z"/>
<path d="M1494 3102 c-84 -29 -136 -80 -182 -179 -25 -54 -27 -67 -27 -188 0
-99 4 -142 18 -181 51 -147 166 -211 361 -202 120 6 205 32 224 69 12 23 8 66
-6 81 -4 3 -41 -5 -82 -19 -106 -36 -208 -37 -275 -2 -41 20 -55 35 -77 80
-15 30 -28 74 -30 99 l-3 45 247 5 c135 3 250 9 254 13 13 13 5 147 -11 205
-22 76 -100 154 -174 176 -71 21 -173 20 -237 -2z m176 -92 c41 -11 94 -61
109 -103 6 -16 11 -46 11 -68 l0 -39 -185 0 -185 0 0 30 c0 17 7 47 15 68 40
95 135 140 235 112z"/>
<path d="M2054 3096 c-7 -18 -4 -23 112 -206 l94 -150 -100 -155 c-113 -175
-132 -210 -123 -219 9 -8 116 -7 129 2 6 4 47 69 93 145 45 75 84 137 86 137
1 0 42 -65 91 -145 l87 -145 64 0 c48 0 65 4 69 15 4 10 -36 83 -101 187 -60
95 -108 177 -108 182 0 6 46 84 103 174 62 98 100 169 96 178 -4 11 -19 14
-63 12 l-58 -3 -81 -130 c-45 -71 -85 -130 -89 -130 -5 0 -41 53 -80 117 -39
64 -77 124 -85 132 -17 21 -128 23 -136 2z"/>
<path d="M2004 1176 c-29 -13 -70 -41 -92 -61 l-41 -36 -3 53 -3 53 -47 3
c-38 3 -49 -1 -57 -17 -8 -14 -10 -135 -9 -373 l3 -353 63 -3 62 -3 0 256 0
256 53 53 c28 28 69 60 91 70 68 32 139 6 181 -65 18 -31 20 -57 25 -299 l5
-265 60 0 60 0 3 259 c2 208 -1 271 -13 320 -29 114 -99 168 -220 174 -58 2
-79 -1 -121 -22z"/>
<path d="M2730 1185 c-57 -18 -115 -65 -143 -118 -31 -61 -31 -186 1 -240 l22
-38 -27 -36 c-21 -28 -28 -49 -31 -98 -4 -58 -2 -64 27 -97 l31 -36 -35 -38
c-43 -47 -59 -92 -53 -156 7 -65 31 -97 103 -133 58 -29 64 -30 205 -30 145 0
146 0 214 34 53 26 74 43 96 78 70 110 42 231 -65 283 -37 18 -74 24 -203 31
-125 8 -162 13 -182 28 -31 22 -37 54 -16 86 15 23 17 24 53 9 44 -19 152 -22
209 -6 62 18 118 64 145 119 30 61 33 171 6 221 l-18 32 50 0 c27 0 53 5 56
11 10 15 9 80 -1 89 -5 4 -97 10 -204 13 -152 4 -205 3 -240 -8z m179 -103
c93 -50 95 -212 3 -265 -43 -25 -127 -25 -161 1 -66 49 -84 132 -44 208 35 68
130 94 202 56z m87 -614 c59 -32 66 -116 14 -163 -52 -47 -218 -61 -297 -26
-80 37 -86 107 -14 184 l26 29 120 -4 c87 -3 128 -8 151 -20z"/>
<path d="M914 1176 c-3 -8 -4 -137 -2 -288 3 -271 3 -273 29 -329 45 -95 121
-135 240 -127 72 6 132 33 178 82 14 14 28 26 32 26 4 0 9 -21 11 -47 l3 -48
55 0 55 0 3 367 2 368 -23 5 c-13 4 -41 5 -63 3 l-39 -3 -3 -257 -2 -256 -60
-56 c-113 -104 -209 -99 -271 14 -11 19 -15 92 -19 290 l-5 265 -58 3 c-43 2
-59 -1 -63 -12z"/>
</g>
</svg>
