<?xml version="1.0" standalone="no"?>
<!DOCTYPE svg PUBLIC "-//W3C//DTD SVG 20010904//EN"
 "http://www.w3.org/TR/2001/REC-SVG-20010904/DTD/svg10.dtd">
<svg version="1.0" xmlns="http://www.w3.org/2000/svg"
 width="310.000000pt" height="164.000000pt" viewBox="0 0 310.000000 164.000000"
 preserveAspectRatio="xMidYMid meet">
<metadata>
Created by potrace 1.13, written by Peter Selinger 2001-2015
</metadata>
<g transform="translate(0.000000,164.000000) scale(0.100000,-0.100000)"
fill="#000000" stroke="none">
<path d="M1075 1455 c-5 -2 -27 -6 -48 -10 l-38 -6 3 -542 c3 -507 4 -544 22
-577 10 -19 28 -45 39 -58 24 -26 103 -52 157 -52 l37 0 10 60 c10 60 9 61
-16 67 -49 11 -79 33 -90 64 -7 22 -11 195 -11 545 l0 514 -27 -1 c-16 0 -32
-2 -38 -4z"/>
<path d="M312 1068 c-40 -5 -85 -13 -99 -19 -24 -9 -25 -12 -18 -67 4 -31 9
-59 10 -61 2 -2 28 3 57 10 87 21 206 18 253 -7 53 -27 85 -88 85 -162 0 -52
-1 -54 -22 -48 -91 26 -248 14 -340 -26 -93 -40 -145 -131 -136 -241 9 -114
72 -192 178 -224 65 -19 257 -19 385 0 l80 12 0 320 c0 304 -1 322 -21 365
-39 83 -104 130 -209 149 -66 12 -99 12 -203 -1z m271 -473 c15 -6 17 -22 17
-130 l0 -124 -46 -7 c-73 -11 -199 1 -236 23 -72 41 -87 139 -30 196 40 40
109 58 202 53 41 -2 83 -7 93 -11z"/>
<path d="M1690 1070 c-142 -30 -240 -127 -285 -284 -25 -85 -17 -268 15 -351
34 -88 123 -174 210 -203 116 -39 293 -36 401 6 26 10 26 11 16 69 -5 32 -11
59 -12 61 -2 2 -30 -4 -63 -12 -71 -19 -209 -21 -263 -4 -81 24 -152 115 -161
208 l-3 35 284 3 284 2 -5 108 c-6 133 -32 205 -96 274 -70 75 -205 112 -322
88z m132 -131 c52 -14 105 -71 123 -132 28 -94 42 -87 -190 -87 l-205 0 0 23
c0 34 44 119 78 150 52 50 123 66 194 46z"/>
<path d="M2242 1048 c3 -7 64 -97 137 -201 l131 -187 -53 -73 c-71 -96 -166
-238 -206 -309 l-32 -58 80 0 80 0 17 32 c23 46 196 308 203 308 9 -1 143
-197 187 -273 l38 -67 83 0 84 0 -17 33 c-32 61 -110 182 -192 297 -46 63 -80
120 -77 128 2 7 61 94 130 192 69 99 125 182 125 185 0 3 -35 5 -79 5 l-78 0
-98 -145 c-54 -79 -101 -142 -104 -139 -3 3 -49 67 -101 142 l-95 137 -84 3
c-65 2 -82 0 -79 -10z"/>
</g>
</svg>
